<?xml version="1.0" encoding="UTF-8"?>
<svg version="1.1" xmlns="http://www.w3.org/2000/svg" width="600" height="600">
<path d="M0 0 C9.735 -0.0825 19.47 -0.165 29.5 -0.25 C32.55958984 -0.28641602 35.61917969 -0.32283203 38.77148438 -0.36035156 C41.21223246 -0.37204036 43.65298836 -0.38223173 46.09375 -0.390625 C47.34833008 -0.41108887 48.60291016 -0.43155273 49.89550781 -0.45263672 C57.09591892 -0.45549629 61.90348635 0.06098165 68 4 C72.32118786 8.44953997 71.47753916 14.66884288 71.4375 20.5 C71.45748047 21.53253906 71.47746094 22.56507813 71.49804688 23.62890625 C71.4931812 31.17070168 71.4931812 31.17070168 69.16015625 35.09375 C67 37 67 37 64 39 C64.5053125 39.41507812 65.010625 39.83015625 65.53125 40.2578125 C67.5 42.125 67.5 42.125 71 47 C71 51.62 71 56.24 71 61 C60.77 61 50.54 61 40 61 C39.67 56.38 39.34 51.76 39 47 C36.03 46.505 36.03 46.505 33 46 C32.67 50.95 32.34 55.9 32 61 C21.44 61 10.88 61 0 61 C0 40.87 0 20.74 0 0 Z M32 11 C32 17.93 32 24.86 32 32 C37.73207641 31.7360571 37.73207641 31.7360571 39.35546875 29.28125 C40.11124028 26.60627684 40.30104053 24.28083019 40.3125 21.5 C40.32925781 20.5615625 40.34601563 19.623125 40.36328125 18.65625 C39.93287352 15.50918275 39.28836675 14.19364133 37 12 C35.35 11.67 33.7 11.34 32 11 Z " fill="#23A246" transform="translate(66,260)"/>
<path d="M0 0 C4.87436991 -0.22329729 9.74573961 -0.38613882 14.62402344 -0.49438477 C16.28112654 -0.53951672 17.93787369 -0.60084462 19.59375 -0.67895508 C33.41101167 -1.31418375 33.41101167 -1.31418375 37.38574219 1.97314453 C38.8981693 4.26752864 39.9604099 6.4650972 41 9 C41.66 9.66 42.32 10.32 43 11 C44.98 7.37 46.96 3.74 49 0 C60.88 0 72.76 0 85 0 C80.50101283 8.99797434 80.50101283 8.99797434 77.72265625 13.3125 C77.12646484 14.24320312 76.53027344 15.17390625 75.91601562 16.1328125 C75.30435547 17.07898438 74.69269531 18.02515625 74.0625 19 C72.25973095 21.80643157 70.45757673 24.61311285 68.66455078 27.42578125 C67.60476559 29.0647333 66.52198772 30.68920653 65.40966797 32.29296875 C62.77426456 36.079106 62.77426456 36.079106 61.87109375 40.48828125 C63.58023207 44.29096616 65.77429938 47.70956096 68.0625 51.1875 C68.99484702 52.6159116 69.92343225 54.04678794 70.84765625 55.48046875 C71.4665271 56.42249146 71.4665271 56.42249146 72.09790039 57.38354492 C73 59 73 59 73 61 C52.87 61 32.74 61 12 61 C13.3381295 57.65467624 14.31322457 55.29085549 16.19921875 52.40625 C16.60333984 51.76816406 17.00746094 51.13007813 17.42382812 50.47265625 C18.26970249 49.15220322 19.1239698 47.83709097 19.98632812 46.52734375 C22.35137515 42.78909979 22.35137515 42.78909979 23.07421875 38.51171875 C21.49701623 34.82393249 19.36991936 31.62651965 17.125 28.3125 C16.12951854 26.80991149 15.13609846 25.30595566 14.14453125 23.80078125 C13.62971191 23.02041504 13.11489258 22.24004883 12.58447266 21.43603516 C9.91833931 17.33700918 7.36097536 13.172866 4.8125 9 C4.09054443 7.82497925 4.09054443 7.82497925 3.35400391 6.6262207 C0 1.12518795 0 1.12518795 0 0 Z " fill="#23A246" transform="translate(486,260)"/>
<path d="M0 0 C0.85089203 -0.0033284 1.70178406 -0.0066568 2.57846069 -0.01008606 C4.37538109 -0.01513272 6.1723108 -0.01749509 7.96923828 -0.01733398 C10.68147785 -0.01950764 13.39330168 -0.037652 16.10546875 -0.05664062 C34.41716067 -0.11578664 34.41716067 -0.11578664 43.0859375 2.16796875 C44.0859375 3.16796875 44.0859375 3.16796875 44.19946289 5.30102539 C44.19160767 6.6756897 44.19160767 6.6756897 44.18359375 8.078125 C44.18109619 8.96894775 44.17859863 9.85977051 44.17602539 10.77758789 C44.16692139 11.91703857 44.15781738 13.05648926 44.1484375 14.23046875 C44.1278125 17.83984375 44.1071875 21.44921875 44.0859375 25.16796875 C33.5259375 25.16796875 22.9659375 25.16796875 12.0859375 25.16796875 C11.5909375 20.71296875 11.5909375 20.71296875 11.0859375 16.16796875 C9.42979093 15.78578108 7.76136726 15.45401773 6.0859375 15.16796875 C4.51520218 16.73870407 4.92224443 18.32159093 4.88061523 20.50415039 C4.86067001 21.42502945 4.84072479 22.34590851 4.82017517 23.29469299 C4.79510643 24.79624184 4.79510643 24.79624184 4.76953125 26.328125 C4.74875015 27.34772812 4.72796906 28.36733124 4.70655823 29.41783142 C4.64094898 32.68863923 4.58212516 35.95953012 4.5234375 39.23046875 C4.48026308 41.44206603 4.43664916 43.65365478 4.39257812 45.86523438 C4.28442547 51.29939512 4.18543677 56.73361499 4.0859375 62.16796875 C-6.8040625 62.16796875 -17.6940625 62.16796875 -28.9140625 62.16796875 C-29.0288706 54.71054482 -29.12841143 47.25618769 -29.1887207 39.79858398 C-29.21386089 37.26201995 -29.24797787 34.72552833 -29.29125977 32.18920898 C-29.35192911 28.54262424 -29.38027824 24.89699743 -29.40234375 21.25 C-29.42815018 20.11649612 -29.4539566 18.98299225 -29.48054504 17.81513977 C-29.48335359 9.92677155 -29.48335359 9.92677155 -26.52392578 5.98217773 C-24.13257654 4.31986565 -22.25612724 3.23053313 -19.4765625 2.41796875 C-18.75597656 2.19625 -18.03539062 1.97453125 -17.29296875 1.74609375 C-11.48067017 0.33358112 -5.94835464 0.00820929 0 0 Z " fill="#23A146" transform="translate(229.9140625,258.83203125)"/>
<path d="M0 0 C18.81 0 37.62 0 57 0 C57 4.29 57 8.58 57 13 C48.75 13 40.5 13 32 13 C32 19.27 32 25.54 32 32 C38.6 32 45.2 32 52 32 C52 36.29 52 40.58 52 45 C45.4 45 38.8 45 32 45 C32 50.28 32 55.56 32 61 C21.44 61 10.88 61 0 61 C0 40.87 0 20.74 0 0 Z " fill="#22A246" transform="translate(0,260)"/>
<path d="M0 0 C11.55 0 23.1 0 35 0 C35 20.13 35 40.26 35 61 C23.45 61 11.9 61 0 61 C0 40.87 0 20.74 0 0 Z " fill="#22A147" transform="translate(287,260)"/>
<path d="M0 0 C11.22 0 22.44 0 34 0 C34 20.13 34 40.26 34 61 C22.78 61 11.56 61 0 61 C0 40.87 0 20.74 0 0 Z " fill="#23A247" transform="translate(154,260)"/>
<path d="M0 0 C10.89 0 21.78 0 33 0 C33 20.13 33 40.26 33 61 C22.11 61 11.22 61 0 61 C0 40.87 0 20.74 0 0 Z " fill="#23A247" transform="translate(441,260)"/>
<path d="M0 0 C10.89 0 21.78 0 33 0 C33 20.13 33 40.26 33 61 C22.11 61 11.22 61 0 61 C0 40.87 0 20.74 0 0 Z " fill="#23A247" transform="translate(400,260)"/>
<path d="M0 0 C10.89 0 21.78 0 33 0 C33 20.13 33 40.26 33 61 C22.11 61 11.22 61 0 61 C0 40.87 0 20.74 0 0 Z " fill="#23A247" transform="translate(332,260)"/>
<path d="M0 0 C11.88 0 23.76 0 36 0 C36 9.57 36 19.14 36 29 C25.44 29 14.88 29 4 29 C4 23.72 4 18.44 4 13 C2.68 13 1.36 13 0 13 C0 8.71 0 4.42 0 0 Z " fill="#22A146" transform="translate(238,292)"/>
<path d="M0 0 C24.42 0 48.84 0 74 0 C74 5 74 5 72.1875 7.625 C62.92091275 14.52951599 50.79467326 13.46561472 39.77514648 13.39111328 C36.94010443 13.37501479 34.10648347 13.39103233 31.27148438 13.41015625 C29.44010107 13.40817388 27.60871864 13.40433032 25.77734375 13.3984375 C24.94476547 13.40451019 24.11218719 13.41058289 23.25437927 13.4168396 C15.98937325 13.33145506 9.2326764 11.91321665 2.9375 8.1875 C1 6 1 6 0 0 Z " fill="#22A246" transform="translate(400,328)"/>
<path d="M0 0 C24.09 0 48.18 0 73 0 C72 7 72 7 70.22729492 8.83358765 C63.19201133 12.51789618 56.02769351 13.45540796 48.1875 13.3984375 C47.29313232 13.40130768 46.39876465 13.40417786 45.47729492 13.40713501 C43.60171875 13.40916051 41.72612071 13.4037377 39.85058594 13.39111328 C37.0066734 13.37503772 34.16418171 13.39101388 31.3203125 13.41015625 C29.48437192 13.40817355 27.6484322 13.40432932 25.8125 13.3984375 C24.97678467 13.40451019 24.14106934 13.41058289 23.2800293 13.4168396 C16.00441332 13.33167201 9.24245946 11.91900662 2.9375 8.1875 C1 6 1 6 0 0 Z " fill="#22A246" transform="translate(201,328)"/>
<path d="M0 0 C19.14 0 38.28 0 58 0 C58 3.96 58 7.92 58 12 C38.86 12 19.72 12 0 12 C0 8.04 0 4.08 0 0 Z " fill="#22A146" transform="translate(332,328)"/>
<path d="M0 0 C4.71356013 -0.24850467 9.42326446 -0.42920182 14.1418457 -0.54931641 C15.74375842 -0.59940142 17.3452185 -0.66749983 18.94555664 -0.75439453 C32.24275907 -1.45795022 32.24275907 -1.45795022 36.65185547 2.20019531 C41 8.28913139 41 8.28913139 41 12 C36.12563009 12.22329729 31.25426039 12.38613882 26.37597656 12.49438477 C24.71887346 12.53951672 23.06212631 12.60084462 21.40625 12.67895508 C7.6612816 13.31086018 7.6612816 13.31086018 3.54394531 10.06201172 C1.18000159 6.63283409 0 4.18941144 0 0 Z " fill="#23A246" transform="translate(530,328)"/>
<path d="M0 0 C0.71790207 0.036129 1.43580414 0.072258 2.17546082 0.10948181 C2.92305161 0.11938644 3.6706424 0.12929108 4.44088745 0.13949585 C6.81669204 0.17852494 9.18778519 0.26629814 11.56217957 0.35557556 C13.17734694 0.39070549 14.79258715 0.4226416 16.40788269 0.45127869 C20.35694934 0.52824568 24.30251733 0.64892605 28.24967957 0.79307556 C26.92999331 5.41197745 25.47403725 9.18404605 22.24967957 12.79307556 C19.28544935 13.34368823 17.14967439 13.50151711 14.20280457 13.37901306 C13.43160278 13.37052338 12.660401 13.36203369 11.86582947 13.35328674 C9.4090086 13.31976851 6.95550328 13.2445046 4.49967957 13.16807556 C2.83175832 13.13797335 1.16378547 13.11059797 -0.50422668 13.08604431 C-4.58753024 13.01998401 -8.66836383 12.91648355 -12.75032043 12.79307556 C-10.50422148 6.0547787 -7.87042109 -0.0061165 0 0 Z " fill="#23A246" transform="translate(498.7503204345703,327.20692443847656)"/>
<path d="M0 0 C11.55 0 23.1 0 35 0 C35 3.96 35 7.92 35 12 C23.45 12 11.9 12 0 12 C0 8.04 0 4.08 0 0 Z " fill="#22A146" transform="translate(287,328)"/>
<path d="M0 0 C11.22 0 22.44 0 34 0 C34 3.96 34 7.92 34 12 C22.78 12 11.56 12 0 12 C0 8.04 0 4.08 0 0 Z " fill="#22A246" transform="translate(154,328)"/>
<path d="M0 0 C10.23 0 20.46 0 31 0 C32.485 4.455 32.485 4.455 34 9 C34.66 9.99 35.32 10.98 36 12 C31.19453321 12.07405295 26.3893971 12.12855497 21.58349609 12.16479492 C19.94802059 12.17989911 18.31258571 12.20038389 16.67724609 12.22631836 C14.32899976 12.26263145 11.98128795 12.27970932 9.6328125 12.29296875 C8.53273361 12.31619453 8.53273361 12.31619453 7.41043091 12.33988953 C5.34814453 12.34057617 5.34814453 12.34057617 2 12 C0 9 0 9 0 0 Z " fill="#23A246" transform="translate(106,328)"/>
<path d="M0 0 C10.56 0 21.12 0 32 0 C32 3.96 32 7.92 32 12 C21.44 12 10.88 12 0 12 C0 8.04 0 4.08 0 0 Z " fill="#22A146" transform="translate(66,328)"/>
<path d="M0 0 C10.56 0 21.12 0 32 0 C32 3.96 32 7.92 32 12 C21.44 12 10.88 12 0 12 C0 8.04 0 4.08 0 0 Z " fill="#22A246" transform="translate(0,328)"/>
<path d="M0 0 C22.11 0 44.22 0 67 0 C67.495 1.485 67.495 1.485 68 3 C45.23 3 22.46 3 -1 3 C-0.67 2.01 -0.34 1.02 0 0 Z " fill="#22A246" transform="translate(495,324)"/>
<path d="M0 0 C3.88636364 3.02272727 3.88636364 3.02272727 5.25 5.75 C5.81782528 10.55877034 5.80947384 14.5322755 3.25 18.75 C-0.46671785 21.90357878 -3.88749922 22.27004994 -8.59765625 22.10546875 C-12.64729418 21.43665377 -14.74284459 19.14083366 -17.0625 15.9375 C-18.08529387 12.68315587 -18.10124367 10.14535546 -17.75 6.75 C-16.1218054 3.66806022 -14.71990938 1.48579333 -11.9375 -0.625 C-7.65437443 -1.84875016 -4.06770435 -1.84895652 0 0 Z M-13.75 5.75 C-14.99838381 9.15528996 -14.99838381 9.15528996 -14.75 12.75 C-12.98358828 15.55189446 -11.71950178 17.26524911 -8.75 18.75 C-4.7369676 19.28507099 -3.21071967 19.08051628 0.125 16.6875 C2.48196922 13.86126329 2.48196922 13.86126329 2.9375 10.25 C2.52338294 6.53748661 2.52338294 6.53748661 -0.4375 3.8125 C-6.03289587 0.32857427 -9.23254618 0.8560917 -13.75 5.75 Z " fill="#23A246" transform="translate(594.75,319.25)"/>
<path d="M0 0 C11.55 0 23.1 0 35 0 C35 0.99 35 1.98 35 3 C23.45 3 11.9 3 0 3 C0 2.01 0 1.02 0 0 Z " fill="#22A246" transform="translate(287,324)"/>
<path d="M0 0 C11.22 0 22.44 0 34 0 C34 0.99 34 1.98 34 3 C22.78 3 11.56 3 0 3 C0 2.01 0 1.02 0 0 Z " fill="#22A246" transform="translate(154,324)"/>
<path d="M0 0 C10.89 0 21.78 0 33 0 C33 0.99 33 1.98 33 3 C22.11 3 11.22 3 0 3 C0 2.01 0 1.02 0 0 Z " fill="#22A246" transform="translate(441,324)"/>
<path d="M0 0 C10.89 0 21.78 0 33 0 C33 0.99 33 1.98 33 3 C22.11 3 11.22 3 0 3 C0 2.01 0 1.02 0 0 Z " fill="#22A246" transform="translate(400,324)"/>
<path d="M0 0 C10.89 0 21.78 0 33 0 C33 0.99 33 1.98 33 3 C22.11 3 11.22 3 0 3 C0 2.01 0 1.02 0 0 Z " fill="#22A246" transform="translate(332,324)"/>
<path d="M0 0 C10.89 0 21.78 0 33 0 C33 0.99 33 1.98 33 3 C22.11 3 11.22 3 0 3 C0 2.01 0 1.02 0 0 Z " fill="#22A246" transform="translate(201,324)"/>
<path d="M0 0 C10.56 0 21.12 0 32 0 C32 0.99 32 1.98 32 3 C21.44 3 10.88 3 0 3 C0 2.01 0 1.02 0 0 Z " fill="#22A246" transform="translate(242,324)"/>
<path d="M0 0 C10.56 0 21.12 0 32 0 C32 0.99 32 1.98 32 3 C21.44 3 10.88 3 0 3 C0 2.01 0 1.02 0 0 Z " fill="#22A246" transform="translate(66,324)"/>
<path d="M0 0 C10.56 0 21.12 0 32 0 C32 0.99 32 1.98 32 3 C21.44 3 10.88 3 0 3 C0 2.01 0 1.02 0 0 Z " fill="#22A246" transform="translate(0,324)"/>
<path d="M0 0 C10.23 0 20.46 0 31 0 C31 0.99 31 1.98 31 3 C20.77 3 10.54 3 0 3 C0 2.01 0 1.02 0 0 Z " fill="#22A246" transform="translate(106,324)"/>
<path d="M0 0 C2.64 0 5.28 0 8 0 C8.59732819 2.76264289 9 5.16032769 9 8 C9.33 8.99 9.66 9.98 10 11 C7.5625 10.625 7.5625 10.625 5 10 C4.67 9.34 4.34 8.68 4 8 C3.67 8.99 3.34 9.98 3 11 C2.01 11 1.02 11 0 11 C0 7.37 0 3.74 0 0 Z M3 2 C3 2.66 3 3.32 3 4 C3.99 3.67 4.98 3.34 6 3 C5.01 2.67 4.02 2.34 3 2 Z " fill="#23A247" transform="translate(585,324)"/>
</svg>
